<mxfile host="app.diagrams.net" modified="2023-04-13T02:30:43.632Z" agent="Mozilla/5.0 (Windows NT 10.0; Win64; x64) AppleWebKit/537.36 (KHTML, like Gecko) Chrome/112.0.0.0 Safari/537.36 Edg/112.0.1722.39" etag="iQI1o97ouHGVf0f__Rsp" version="21.1.4" type="github">
  <diagram name="第 1 页" id="b2z4SK8rqgerTepaQVdB">
    <mxGraphModel dx="1050" dy="590" grid="1" gridSize="10" guides="1" tooltips="1" connect="1" arrows="1" fold="1" page="1" pageScale="1" pageWidth="827" pageHeight="1169" math="0" shadow="0">
      <root>
        <mxCell id="0" />
        <mxCell id="1" parent="0" />
        <mxCell id="1vL2gm1FrSEq3psSnlqs-5" style="edgeStyle=orthogonalEdgeStyle;rounded=0;orthogonalLoop=1;jettySize=auto;html=1;exitX=0.5;exitY=1;exitDx=0;exitDy=0;entryX=0.5;entryY=0;entryDx=0;entryDy=0;" edge="1" parent="1" source="1vL2gm1FrSEq3psSnlqs-1" target="1vL2gm1FrSEq3psSnlqs-4">
          <mxGeometry relative="1" as="geometry" />
        </mxCell>
        <mxCell id="1vL2gm1FrSEq3psSnlqs-1" value="" style="rounded=0;whiteSpace=wrap;html=1;" vertex="1" parent="1">
          <mxGeometry x="100" y="60" width="120" height="60" as="geometry" />
        </mxCell>
        <mxCell id="1vL2gm1FrSEq3psSnlqs-2" value="" style="ellipse;whiteSpace=wrap;html=1;aspect=fixed;" vertex="1" parent="1">
          <mxGeometry x="120" y="310" width="80" height="80" as="geometry" />
        </mxCell>
        <mxCell id="1vL2gm1FrSEq3psSnlqs-7" value="" style="edgeStyle=orthogonalEdgeStyle;rounded=0;orthogonalLoop=1;jettySize=auto;html=1;" edge="1" parent="1" source="1vL2gm1FrSEq3psSnlqs-3" target="1vL2gm1FrSEq3psSnlqs-4">
          <mxGeometry relative="1" as="geometry" />
        </mxCell>
        <mxCell id="1vL2gm1FrSEq3psSnlqs-3" value="" style="shape=hexagon;perimeter=hexagonPerimeter2;whiteSpace=wrap;html=1;fixedSize=1;" vertex="1" parent="1">
          <mxGeometry x="250" y="180" width="120" height="80" as="geometry" />
        </mxCell>
        <mxCell id="1vL2gm1FrSEq3psSnlqs-6" value="" style="edgeStyle=orthogonalEdgeStyle;rounded=0;orthogonalLoop=1;jettySize=auto;html=1;" edge="1" parent="1" source="1vL2gm1FrSEq3psSnlqs-4" target="1vL2gm1FrSEq3psSnlqs-2">
          <mxGeometry relative="1" as="geometry" />
        </mxCell>
        <mxCell id="1vL2gm1FrSEq3psSnlqs-4" value="" style="ellipse;whiteSpace=wrap;html=1;aspect=fixed;" vertex="1" parent="1">
          <mxGeometry x="120" y="180" width="80" height="80" as="geometry" />
        </mxCell>
      </root>
    </mxGraphModel>
  </diagram>
</mxfile>
